<?xml version="1.0" encoding="UTF-8"?>
<svg enable-background="new 0 0 139.877 262.823" viewBox="0 0 139.877 262.823" xmlns="http://www.w3.org/2000/svg">
 <path d="m139.151,90.792c-3.89-8.568-6.275-15.623-15.241-20.141-3.791-1.911-8.021-3.366-12.255-3.83-1.764-.193-9.728,1.268-10.618.243-.317-.364 4.958-13.03 5.396-14.591 1.722-6.147 4.511-12.237 2.973-18.73-2.841-11.986-8.83-21.696-19.519-28.267-9.405-5.783-22.487-6.391-33.098-4.552-13.398,2.322-22.543,12.385-27.719,24.335-2.232,5.156-4.045,9.898-4.746,15.53-.305,2.448 3.294,15.469 1.839,16.186-5.033,2.479-9.522,3.834-13.804,7.876-4.391,4.145-7.999,9.295-10.076,14.984-2.899,7.94-2.745,16.751-1.158,25.075 1.104,5.791 2.815,11.359 5.918,16.409 1.573,2.559 3.456,4.962 5.772,6.892 2.557,2.132 5.251,1.998 7.971,3.464-3.857,4.619-11.075,3.286-12.346,10.871-.318,1.897-.325,4.688 1.478,5.921 2.183,1.492 6.414-1.728 4.353-3.127-.982-.667-.377,2.348-1.393,2.565-2.488.535-3.787-1.526-3.811-3.703-.045-4.012 3.524-10.117 8.304-9.072-.707,1.317-3.662,6.361.2,6.004 3.991-.368 6.595,2.584 10.44,3.053 3.395.415 2.672-1.894 4.694,1.442 1.069,1.763 2.395,3.698 3.805,5.212 3.257,3.496 8.38,6.486 12.503,8.823 15.316,8.682 22.312,30.118 15.377,46.197-3.397,7.876-10.702,13.926-14.822,21.566-4.45,8.25-8.364,18.318-2.772,27.055 4.82,7.531 14.587,6.299 21.404,2.095 2.813-1.734 5.504-4.532 8.79-2.535 2.689,1.634 6.668,5.175 5.622,8.779 2.78-.035-4.836-11.314-6.063-10.732 2.539-1.205 7.92.317 10.2,1.544 1.642.883 3.115,2.358 4.509,3.573 .981.854 2.609,4.506 3.844,4.699 1.795-5.803-13.581-11.613-17.778-11.242 3.284-4.871 6.443-15.179-3.18-14.613-2.699.159-6.099,1.563-7.519,4.001-2.337,4.011 4.654,5.063 4.614,4.18-.041-.904-7.793-1.394-2.335-5.764 4.248-3.401 12.012-2.173 11.169,4.345-.613,4.739-3.747,9.952-9.002,7.351-6.858-3.395-9.31-8.976-11.816-15.695-3.74,5.617 8.656,14.998 12.449,17.112-5.318,2.442-13.032-1.477-16.613-5.244-1.335,6.275 14.58,7.039 17.862,6.494-5.321,2.278-15.813,9.777-21.75,5.014-6.445-5.171-9.021-17.98-3.232-24.664-.339,5.67 2.898,10.737 6.828,14.529 .697-3.276-5.167-8.112-5.634-11.996-.726-6.033 3.561-11.695 7.841-15.357-.303,4.765-1.2,11.03 1.417,15.362 1.069-1.606-.149-7.103-.581-9.048-.236-1.064 1.265-10.728-2.083-6.938 2.064-3.102.581-1.391 2.415-.085-.362-3.771 12.541-8.129 15.064-9.078 6.774-2.549 13.253-6.074 15.176-13.596 1.643-6.423-.738-13.063-1.037-19.519-.117-2.526 3.458-16.252 2.688-16.553-3.195,5.849-4.405,11.746-3.66,18.355 .641,5.67 2.343,11.717.999,17.395-1.332,5.629-5.509,9.554-10.71,11.714-6.326,2.626-11.929,4.972-17.812,8.576 2.675-4.352 6.179-7.627 8.951-11.741 2.732-4.056 7.003-6.081 9.243-10.783 4.782-10.046 6.841-21.905 1.417-32.475-1.538.53.982,7.324 1.182,8.513 .911,5.456 1.342,10.822-.416,16.155-1.278,3.877-2.996,7.799-5.516,11.041-1.731,2.226-6.631,8.292-9.24,9.298 6.019-9.697 3.938-21.171-.212-31.303-4.578-11.174-13.037-15.396-22.452-21.846-3.318-2.272-6.918-5.124-8.21-9.103-1.678-5.167 2.534-1.305 4.77-1.47 2.021-.149 4.482-3.987 4.474-5.83-.011-2.402-3.806-3.673-5.515-5.1 9.494.284 19.567-7.288 23.731-15.612 1.895,4.039 3.336,4.427 2.061,9.221-1.042,3.916-.323,8.278 1.021,11.97 3.101,8.518 8.936,16.799 13.405,24.69 1.823-.575-7.067-15.792-7.723-17.018-4.023-7.525-7.889-14.184-4.392-22.911 5.677,6.939 13.863,13.108 21.859,17.153 2.681,1.354 10.021,6.749 12.779,6.246-2.718.884-6.851,6.604-1.872,5.954-3.214,2.484-5.918,5.53-8.161,8.908 1.191,1.063 7.64-7.155 9.117-8.284 .626,3.093 4.372.751 6.272.698 1.662-.045.528,1.339 1.535,1.924 1.577.916 4.743,1.519 6.288.252 1.114-.914 4.089-1.278 5.651-1.298 5.34-.064 1.165-6.497-.096-8.446 .22-.055 6.647.959 6.2-.694-.229-.847-12.31.832-5.928-3.441 5.55-3.715 9.105-7.702 12.796-13.298 7.918-11.995 9.013-23.431 7.25-37.519"/>
 <path d="m68.248,1.486c1.254-1.392 8.8.395 10.36.816 5.903,1.593 10.854,4.157 15.606,8.024 8.977,7.306 15.738,18.728 14.184,30.672-1.489,11.433-6.092,22.075-12.941,31.167-3.279,4.353-8.437,9.153-13.59,11.05-2.672.984-5.801,1.485-8.22,3.053-2.902,1.881 2.038,4.703 1.804,7.021-1.83-1.74-2.592-4.688-5.33-5.33 1.141-1.171 3.438-2.474 3.553-4.306 .176-2.806-4.438-1.574-5.426-.357-.562-1.691-4.53-6.729-5.554-2.228-.552,2.426 2.416,4.888 3.681,6.599-1.755.349-3.518.654-5.288.916 1.002-3.323-3.797-4.279-5.731-5.066-5.24-2.132-10.549-5.073-14.931-8.667-8.748-7.175-14.429-19.272-14.893-30.513-.942-22.808 19.216-45.653 42.716-42.851" fill="#0f0"/>
 <path d="m85.443,26.133c.062,2.328-1.765-1.585 0,0"/>
 <path d="m89.189,27.716c-.48.427-1.094.502-.958-.334 .301.105.694.16.958.334"/>
 <path d="m86.691,29.256h-.956c.445-.843.764-.843.956,0"/>
 <path d="m84.444,30.214c-.083.305-.166.611-.249.916-.571-.853-.452-1.085.249-.916"/>
 <path d="m89.815,32.711c-.404.012-.612.22-.626.625-.598-.319-.931-.812-1-1.478 .355-.886 1.417.67 1.626.853"/>
 <path d="m87.317,33.961c-.48.426-1.094.502-.958-.333 .406-.063.682.067.958.333"/>
 <path d="m91.355,38.957c.258-1.539-1.646-.261-1.231-1.144 .115-.246.889-.3 1.111-.265 .793.123-.042-1.253.453-1.713 .911,1.162.799,2.203-.333,3.122"/>
 <path d="m85.735,38.957c-.638,1.713-2.428-2.718 0,0"/>
 <path d="m95.103,41.455c-.695.35-1.297.009-.292-.625-.085.368.164.34.292.625"/>
 <path d="m88.857,41.455c-.369,1.773-1.342-1.258 0,0"/>
 <path d="m84.819,42.079c.032,2.371-1.416,1.054 0,0"/>
 <path d="m91.688,42.37-.625.958c-.666-.94-.458-1.26.625-.958"/>
 <path d="m92.938,44.577c-.348,1.999-1.66-1.63 0,0"/>
 <path d="m86.983,44.869c-.074,1.569-1.958-.556 0,0"/>
 <path d="m89.189,46.118c-.607-.699-.398-.908.626-.625l-.626.625"/>
 <path d="m83.236,47.991-.624-.625c.665-.309 1.081-.822 1.248-1.541 .226.854.018,1.575-.624,2.166"/>
 <path d="m92.938,47.7-.334.916c-.578-.81-.466-1.115.334-.916"/>
 <path d="m90.729,49.24c-1.335,1.256-.372-1.771 0,0"/>
 <path d="m84.819,49.865c-1.843.315.626-2.208 0,0"/>
 <path d="m87.317,48.949c.08.81-.194,1.075-.825.794-.34-.71-.065-.975.825-.794"/>
 <path d="m82.32,52.071c-.975.186-.975-.23 0-1.249v1.249"/>
 <path d="m89.481,51.738c-.196,1.364-1.626-.117 0,0"/>
 <path d="m86.983,52.696c.16,1.143-.256,1.56-1.248,1.249 .041-.52.316-2.086 1.248-1.249"/>
 <path d="m93.229,52.987c-.322-.169-.614-.419-.916-.624 .656-.186 1.031-.048.916.624"/>
 <path d="m84.195,53.612c-.388,1.719-1.343-1.097 0,0"/>
 <path d="m89.815,54.569 .29-.958c.963.894.867,1.214-.29.958"/>
 <path d="m86.983,55.818c-.622.62-1.069-.964 0,0"/>
 <path d="m84.444,56.443c-.466.408-.982.507-.876-.333 .424-.043.687.113.876.333"/>
 <path d="m81.072,56.443-.334,1.249c-.67-1.036-.558-1.452.334-1.249"/>
 <path d="m92.313,57.359c-.67.192-1.066.062-.957-.625 .452.046.724.279.957.625"/>
 <path d="m63.543,99.035c-.43,3.419.895,6.049-.194,9.549-1.486,4.777-4.058,8.943-7.354,12.688-3.188,3.622-6.915,6.845-11.605,8.289-3.995,1.229-7.565.384-11.114,2.448 .775-2.225 3.436-4.324 1.791-6.87-1.45-2.243-4.051-.662-5.205.916-.446-6.615-11.654-4.029-6.245,4.372-13.902-.269-19.905-15.757-21.635-27.314-2.292-15.299 1.524-30.513 14.515-39.967 2.196-1.598 5.255-2.315 7.265-4.039 3.217-2.759 4.087.727 5.233,2.915 3.984,7.602 9.618,13.724 16.902,18.263 1.055.657 12.673,6.783 12.692,6.76 3.494.485-2.575,4.367-2.79,4.621-2.077,2.448-.327,5.088-.042,3.165 1.331,1.557 9.712-.594 7.786,4.204" fill="#d010b1"/>
 <path d="m65.209,99.409c.409,3.979.394,8.365-1.546,11.976-1.083,2.016-2.063,5.386.547,6.884-.74-8.484 6.231-14.227 9.66-21.232-1.911-.051-8.661-.264-8.661,2.372" fill="#ff0"/>
 <path d="m96.061,58.941c-.812.2-.923-.12-.334-.958l.334.958"/>
 <path d="m81.986,59.232c-1.256.216-1.256-.09 0-.916v.916"/>
 <path d="m85.735,59.565c-1.297-.099-.099-1.292 0,0"/>
 <path d="m92.604,61.106c-.524-.357-.43-.957-.292-1.541 .365.495.84,1.053.292,1.541"/>
 <path d="m88.231,60.19c-.036,1.118-.897.62-.624-.334 .294-.008.43.129.624.334"/>
 <path d="m90.729,61.106c-.419-.081-.833-.194-1.248-.292 .53-.089 1.148-.176 1.248.292"/>
 <path d="m81.362,62.063c-.085.9-1.313.655-1.099.181 .292-.431.658-.492 1.099-.181"/>
 <path d="m78.574,62.354c-.132.75-.803,1.138-1.583.958 .408-.445 1.238-.561 1.583-.958"/>
 <path d="m89.815,62.979c-.334-.169-.644-.42-.958-.625 .671-.191 1.069-.061.958.625"/>
 <path d="m82.32,63.604c.058-1.118.362-1.215.916-.292-.305.097-.61.195-.916.292"/>
 <path d="m84.444,64.562c-.466.409-.982.507-.876-.333 .424-.043.687.113.876.333"/>
 <path d="m86.691,64.854c-.318-.097-.638-.195-.956-.292 .834-.629 1.154-.532.956.292"/>
 <path d="m78.864,66.103c-1.108.772-.314-1.424 0,0"/>
 <path d="m75.741,67.684c-1.291-.099-.099-1.291 0,0"/>
 <path d="m80.446,67.06c.5.527.39.832-.332.915-.578-.808-.468-1.113.332-.915"/>
 <path d="m83.236,68.309c-1.998.35.302-1.764 0,0"/>
 <path d="m109.467,67.684c1.146,1.291 7.381,1.474 8.998,1.998 3.876,1.256 7.649,3.392 10.738,6.047 6.066,5.215 9.329,14.109 9.682,21.932 .818,18.204-6.76,36.425-23.799,44.631 1.439-1.763-.93-4.271-2.602-4.599-2.156-.423-3.194,4.345-5.162,1.914-.757-.936-3.876-1.35-4.144.294-.411,2.52 2.391,4.37 4.122,5.514-7.749.829-18.196-5.925-24.814-10.208-5.703-3.69-10.146-8.094-15.026-12.719-4.386-4.156-.883-11.764 1.888-15.94 1.694-2.555 3.549-5.036 4.98-7.754 .775-1.471 1.33-4.69 2.663-5.838-3.821-4.903-1.446-5.466 3.122-7.14 11.563-4.236 16.195-19.144 29.354-18.132" fill="#ff0"/>
 <path d="m67.332,83.589-.332,2.831c-3.49-2.874-3.271-8.631.332-2.831" fill="#0f0"/>
 <path d="m113.837,82.339c-.098-.305-.194-.611-.292-.916 .5-.097.598.208.292.916"/>
 <path d="m72.329,84.212c-1.163,1.307-2.476,2.707-4.081,3.456 .261-1.665 2.485-7.318 4.081-3.456" fill="#0f0"/>
 <path d="m117.294,83.921c-.52.084-.967-.174-1.25-.625 .596-.581 1.09-.069 1.25.625"/>
 <path d="m47.348 85.462c-2.243 2.245-1.361-1.975 0 0"/>
 <path d="m50.762,86.711c-.297,2.057-1.558-1.395 0,0"/>
 <path d="m117.916,87.668c-.169.504-.509.814-1.02.932-.487-.028.062-2.098 1.02-.932"/>
 <path d="m50.137,88.917c-1.008.661-.887-.436-.916-.958 .607.069 1.08.332.916.958"/>
 <path d="m120.414,89.208c-.431.293-.745.679-.941,1.16-.957-.454-.963-1.146-.015-2.075 .618.007.938.312.956.915"/>
 <path d="m71.995,90.458c.834,1.476 1.797,2.947 1.874,4.705-4.566,0-.261-3.143-3.77-4.653-3.271-1.409-1.964,3.23-2.269,4.487-.422,1.739-4.183,3.439-3.563.707 .492-2.167 2.144-4.272-.059-6.161 2.537.351 5.672-1.171 7.787.915" fill="#0f0"/>
 <path d="m47.639,91.083c-1.042.099-.707-.849 0-.916 0,.293.057.629 0,.916"/>
 <path d="m60.129,90.792c-.435.705-.958,4.562-2.688,3.674-2.249-1.156 1.838-3.525 2.688-3.674" fill="#0f0"/>
 <path d="m52.01,92.04c-.604.277-1.201,1.29-1.873.624 .649-.245 1.155-1.323 1.873-.624"/>
 <path d="m47.639,92.664c-.637.549-.942.341-.916-.624l.916.624"/>
 <path d="m119.166,92.664c-.276.155-.653.199-.958.292 .148-.641.492-.75.958-.292"/>
 <path d="m121.041,95.163c-.111-.527-.224-1.055-.335-1.583 1.167.527 1.278,1.055.335,1.583"/>
 <path d="m47.639,95.454c.345.754.137,1.073-.625.958-.38-.639-.172-.958.625-.958"/>
 <path d="m49.512,95.787c-.059.935-1.252.842-.916-.333 .408-.06.632.086.916.333"/>
 <path d="m117.294,96.412c-.512.619-.72.299-.626-.958l.626.958"/>
 <path d="m119.166,96.078c-.637.605-.956.397-.958-.624 .665-.263.984-.055.958.624"/>
 <path d="m121.04 96.703c-1.109 1.14-1.167-1.067 0 0"/>
 <path d="m121.957,100.45 .332-1.541c.756,1.232.646,1.746-.332,1.541"/>
 <path d="m53.593,100.159-.333-.958c1.155.08 1.265.399.333.958"/>
 <path d="m47.639,99.534c.122,1.282 1.249.002 1.249.916-.597-.367-1.204-.388-1.82-.061-.465-.618-.275-.904.571-.855"/>
 <path d="m119.166,99.534c.574,2.863-2.341-.614 0,0"/>
 <path d="m54.509,102.324c-.44.688-.648.383-.624-.916 .208.305.416.611.624.916"/>
 <path d="m119.166,102.032c.102,1.104-.998.614-.998-.062 .319-.387.651-.366.998.062"/>
 <path d="m116.04 102.03c-0.271 1.87-2.016-0.601 0 0"/>
 <path d="m51.387,103.281c-2.209.626.316-1.845 0,0"/>
 <path d="m48.888,103.573c-1.109.773-.315-1.423 0,0"/>
 <path d="m44.849,103.281c.243,2.21-2.125-.431 0,0"/>
 <path d="m120.414,104.197c-.622-.024-1.124-.275-.956-.916 .574.065 1.044.316.956.916"/>
 <path d="m116.96,104.531c.354-.571.625-.424.812.44-.766,1.767-2.155-.581-2.352-1.065l1.54.625"/>
 <path d="m122.58 104.53c-1.291-0.1-0.1-1.293 0 0"/>
 <path d="m52.343,105.155c-1.037.109-.748-.892 0-.958 0,.3.074.669 0,.958"/>
 <path d="m56.383,105.78c-.282,1.812-2.212-1.013-.833-1.042 .346.292.623.639.833,1.042"/>
 <path d="m43.601,106.404c-.524.277-.524.693 0,1.249-1.127.322-1.111-.597-.333-.958-.741-.116-1.158-.532-1.25-1.249 .514-.667 1.323.729 1.583.958"/>
 <path d="m121.665,105.78c-.162.475-.196.959-.104,1.452-.029.077-1.859-1.307-.659-1.81l.763.358"/>
 <path d="m49.512,107.028c.22,1.283-1.108.443-.999.25 .219-.599.552-.682.999-.25"/>
 <path d="m52.01,107.652c-.494.408-1.023.509-.916-.333 .392-.057.652.073.916.333"/>
 <path d="m117.294,109.193c2.34.119-.844-2.19 1.872-.916-1.905.215-1.18,2.576-3.164.916-.784-.659-2.093-1.264-.292-1.874-.131,1.16.397,1.784 1.584,1.874"/>
 <path d="m45.474,107.652c-.597.556.027,1.174 0,1.874-1.344-.371-1.806-2.186 0-1.874"/>
 <path d="m124.163,109.193c-.697,0-.782-.61-.334-1.25 .415.373.648.832.334,1.25"/>
 <path d="m50.137,108.902c.149.702-1.544,1.819-2.066,1.51-.204-.121 1.415-1.901 2.066-1.51"/>
 <path d="m52.969,109.193c.026.68-.293.888-.958.625 .753-1.414.095.234.958-.625"/>
 <path d="m54.842,111.691-.333.333c-1.175-.658.336-1.864.333-.333"/>
 <path d="m110.72 110.78c-0.151 2.093-1.773-0.494 0 0"/>
 <path d="m40.478,112.315c-1.081-.697-.776-1.113.916-1.249l-.916,1.249"/>
 <path d="m121.33,111.691c.819-.685.959-.218.959.387 0,.147-2.476.032-2.158-.674 .452-.367.851-.272 1.199.287"/>
 <path d="m47.348 112.02c-1.484 2.949-1.596-0.748 0 0"/>
 <path d="m37.022,113.273c-1.996.355.303-1.767 0,0"/>
 <path d="m115.71,112.649c-.072.827-1.861.683-2.497.292 .705-.493 1.683-.262 2.497-.292"/>
 <path d="m51.387,112.94c.153,1.401 1.716-.555 1.582.958 .168.021-2.804,1.439-2.403.611 .499-1.033.073-1.023-1.054-.944 .549-.438 1.174-.646 1.875-.625"/>
 <path d="m111.963,113.565c-.592.335-1.425,1.067-1.54,0h1.54"/>
 <path d="m118.832,115.147c-.236-.702.347-1.042.96-1.25 .067.659-.181,1.438-.96,1.25"/>
 <path d="m124.453,114.813c-.125.236-.434.434-.624.625-1.412-1.41-.708-2.09.624-.625"/>
 <path d="m40.478 114.52c-0.423 1.779-1.326-1.248 0 0"/>
 <path d="m44.849,114.813c-.073.389-.299.713-.624.958-.901-.676-.099-1.379.624-.958"/>
 <path d="m117.29 115.15c-1.296-0.099-0.1-1.293 0 0"/>
 <path d="m110.715,115.771 1.248-.958c-.004.812-.466,1.186-1.248.958"/>
 <path d="m48.263,115.771c-1.291-.099-.099-1.291 0,0"/>
 <path d="m113.545,117.021c-.716-.193-1.205.042-1.582-.333 .75-.945 1.277-.834 1.582.333"/>
 <path d="m37.646,117.021c-1.995.353.303-1.767 0,0"/>
 <path d="m41.394,117.312c-.522.559-.993.335-1.249-.292 .211-.122 1.132-.656 1.249.292"/>
 <path d="m107.593,116.688c.692.957-.378,1.384-.916,0h.916"/>
 <path d="m123.205,118.269c-.997.204-1.095-.324-.292-1.582 .558.442.655.969.292,1.582"/>
 <path d="m118.542,117.312c-.547.923-.866.826-.958-.292 .319.098.639.195.958.292"/>
 <path d="m46.391,117.312c.43,2.354-2.686-.463 0,0"/>
 <path d="m105.094,117.312c.076,1.437-.34,1.646-1.248.625l1.248-.625"/>
 <path d="m111.339,117.937c.459-.071 1.287,1.458 1.25,1.874-.627-.754-1.943-1.511-1.582-2.416 .019.296.208.317.332.542"/>
 <path d="m121.041,117.312c.082.795-.194,1.07-.829.824-.345-.719-.068-.993.829-.824"/>
 <path d="m113.837,118.895 1.249-.958c-.004.812-.467,1.185-1.249.958"/>
 <path d="m106.342,119.519c.369,1.301-.994,1.131-.624-.333 .194.291.407.196.624.333"/>
 <path d="m119.458,119.811c-.061.514-1.747,1.634-2.039.832-.382-1.053 1.569-1.142 2.039-.832"/>
 <path d="m122.913,119.519c-.192.843-.512.843-.956,0h.956"/>
 <path d="m108.841,120.143c-.098.305-.194.611-.292.916-.957-.863-.861-1.168.292-.916"/>
 <path d="m125.08 121.06c-1.227 0-0.205-1.151 0 0"/>
 <path d="m112.297,121.683c-.438,1.109-1.824.533-1.582-.624l1.582.624"/>
 <path d="m117.584,122.641c-.854.848-1.781-.3-1.54-1.249 .657.212 1.05.79 1.54,1.249"/>
 <path d="m122.289,123.89c-.284-.403-.441-.848-.471-1.334 .306-.76 1.233.671 1.387.71l-.916.624"/>
 <path d="m105.094,122.641c-.312.771-.803.802-1.248,0 .412,0 .838-.035 1.248,0"/>
 <path d="m28.28,124.806c1.304,2.296-.271,4.586-.625,6.87-7.053-2.365-4.008-11.716.625-6.87" fill="#d010b1"/>
 <path d="m34.232,126.055c.94,2.96-2.336,5.59-4.996,5.954 .879-2.422 1.202-7.69 4.996-5.954" fill="#d010b1"/>
 <path d="m24.241,132.3c-.58.352-1.205.463-1.875.333 .909.026 1.384-.762 1.875-.333" fill="#9f40ff"/>
 <path d="m40.145,135.423c1.826,1.866 1.416,5.115-1.082,6.163-3.037,1.273-1.895-3.61-3.805-4.719 .313.182-7.675-2.326-4.383-3.104 4.327-1.023 5.284.375 9.27,1.66" fill="#d010b1"/>
 <path d="m31.111,137.921c.236,1.574 1.527,3.774-.467,4.842-1.169.626-3.563.688-4.571-.346-1.458-1.496.205-9.07-5.33-5.037-.861.627-2.048,3.547-3.593,2.839-2.67-1.225 1.728-5.113 2.791-5.604 5.021-2.321 8.349-.892 11.17,3.306" fill="#d010b1"/>
 <path d="m113.84 140.13c0.887 4.103-2.258 3.331-4.37 4.663-0.24-1.885 2.095-7.922 4.37-4.663" fill="#ff0"/>
 <path d="m107.92 141.38c0.172 6.361-7.279-4.402 0 0" fill="#ff0"/>
 <path d="m115.42,145.415c1.697-1.663 4.785,4.894 4.96,5.974 .23,1.418-1.761,2.385-2.498.987-1.257-2.382-3.689-3.159-4.404.418-.381,1.902-2.391,2.635-4.221,2.239-2.13-.459.292-1.177-.708-2.125 1.376-1.196 1.458-3.324-.54-3.912-2.952-.869-5.077,2.362-6.661,4.246-2.346-1.039 1.563-5.436 2.97-5.968 2.055-.777 9.218-2.297 11.102-1.859" fill="#ff0"/>
 <path d="m101.056,147.622c-.999,1.181-1.199,2.479-2.613,3.549-.951.719-1.485-4.687 2.613-3.549" fill="#ff0"/>
</svg>
