<svg xmlns="http://www.w3.org/2000/svg" version="1.1">
	<defs>
    	<linearGradient id="grad1" x1="10" y1="10" x2="130" y2="10"
		 gradientUnits="userSpaceOnUse">
      		<stop offset="0%" style="stop-color:rgb(152,245,255);stop-opacity:1" />
      		<stop offset="100%" style="stop-color:rgb(69,139,0);stop-opacity:1" />
    	</linearGradient>
  	</defs>
	<filter id="f1" width="200%" height="200%">
      	<feOffset result="offOut" in="SourceGraphic" dx="10" dy="10" />
      		<feGaussianBlur result="blurOut" in="offOut" stdDeviation="10" />
      	<feBlend in="SourceGraphic" in2="blurOut" mode="normal" />
    </filter>
	<defs>
    	<linearGradient id="grad2" x1="150" y1="20" x2="195" y2="65"
		 gradientUnits="userSpaceOnUse">
      		<stop offset="0%" style="stop-color:rgb(255,0,0);stop-opacity:1" />
      		<stop offset="100%" style="stop-color:rgb(138,43,226);stop-opacity:1" />
    	</linearGradient>
  	</defs>
	<defs>
    	<linearGradient id="grad3" x1="220" y1="10" x2="265" y2="90"
		 gradientUnits="userSpaceOnUse">
      		<stop offset="0%" style="stop-color:rgb(255,215,0);stop-opacity:1" />
      		<stop offset="100%" style="stop-color:rgb(255,218,185);stop-opacity:1" />
    	</linearGradient>
  	</defs>
  	<path id="lineA" d="M30,10 55,80 80,10 105,80 130,10" stroke="url(#grad1)" stroke-width="10" fill="none" filter="url(#f1)"/>
	<path id="lineB" d="M170,90 150,90 150,10 170,10
	M 170,90 m 0,0 a 25,25 0 1,0 0,-50
	M 170,40 m 0,0 a 15,15 0 1,0 0,-30
	" stroke="url(#grad2)" stroke-width="10" fill="none" filter="url(#f1)"/>
	<path id="lineC" d="M220,10 265,10 220,90 265,90" stroke="url(#grad3)" stroke-width="10" fill="none" filter="url(#f1)" />
</svg>
